<svg xmlns="http://www.w3.org/2000/svg" viewBox="0 0 100 100" width="100" height="100">
  <!-- Brain with heart symbol for mental health -->
  <defs>
    <radialGradient id="brain-gradient" cx="50%" cy="50%" r="50%" fx="50%" fy="50%">
      <stop offset="0%" stop-color="#9C75D5" />
      <stop offset="100%" stop-color="#7E57C2" />
    </radialGradient>
    <radialGradient id="heart-gradient" cx="50%" cy="50%" r="50%" fx="50%" fy="50%">
      <stop offset="0%" stop-color="#FF8A80" />
      <stop offset="100%" stop-color="#E53935" />
    </radialGradient>
  </defs>
  
  <!-- Brain outline -->
  <path d="M85,50c0,19.33-15.67,35-35,35S15,69.33,15,50S30.67,15,50,15S85,30.67,85,50z" fill="url(#brain-gradient)" stroke="#B39DDB" stroke-width="2" />
  
  <!-- Brain details -->
  <path d="M28,40c0,0,5-10,15-10s15,10,15,10" fill="none" stroke="#FFFFFF" stroke-width="2.5" stroke-linecap="round" />
  <path d="M72,40c0,0-5-10-15-10" fill="none" stroke="#FFFFFF" stroke-width="2.5" stroke-linecap="round" />
  <path d="M28,60c0,0,5,10,15,10s15-10,15-10" fill="none" stroke="#FFFFFF" stroke-width="2.5" stroke-linecap="round" />
  <path d="M72,60c0,0-5,10-15,10" fill="none" stroke="#FFFFFF" stroke-width="2.5" stroke-linecap="round" />
  
  <!-- Vertical divide -->
  <path d="M50,30v40" fill="none" stroke="#FFFFFF" stroke-width="2.5" stroke-linecap="round" />
  
  <!-- Heart in center -->
  <path d="M50,65c0,0-8-7.5-8-12.5c0-4,3-6.5,6-6.5c2,0,2,1,2,1s0-1,2-1c3,0,6,2.5,6,6.5C58,57.5,50,65,50,65z" fill="url(#heart-gradient)" stroke="#FFFFFF" stroke-width="1" />
</svg>
